<svg xmlns="http://www.w3.org/2000/svg" width="766" height="326" aria-label="Vivero Dulcinea" viewBox="0 0 1532 652"><path fill="#0ba372" d="M15.76 330.87h52.8c14.8 0 29.3.6 43.9 3.4.6.1.6.1 3.5.7 29.1 5.7 55.3 18.7 76 40 .6.6 1.2 1.2 1.9 1.8 20.1 19.5 33.7 45.9 39.7 73.2.3 1.3.6 2.7 1 4 2.3 9.3 1.8 18.8 1.8 28.3v2.8c0 14-.4 27.4-4.4 40.9-.2.9-.5 1.7-.7 2.6-5.7 18.7-14.3 36-26.6 51.3-1.6 2.1-3.2 4.2-4.7 6.4-2.7 3.5-5.5 6-9 8.7-.7.8-1.5 1.6-2.3 2.3-20.6 20.7-47.1 32.7-75.8 37.2-2.9.5-2.9.5-3.9 1.5-13 1.8-26 2.3-39.2 2.2h-18.8c-4.6-.1-9.2-.1-13.9-.1-9 0-18 0-27.1-.1v-2h-2v-176.8c0-15.1-.1-30.2-.1-45.3v-79.8c.3-4.6 4.1-3.2 7.9-3.2m30.2 35.1c-.1 3.1-.1 6.1-.1 9.1v221.6c0 6.2 0 6.2 1.1 7.3 2.8.2 5.5.2 8.2.2.4 0 .4 0 2.5.1h10.9c13.1 0 25.7-.4 38.4-3.3l3.3-.6c17.7-3.8 32.8-12 46.7-23.4.7-.5 1.3-1 1.9-1.5 18.6-15.2 29.2-38.1 35.7-60.7.3-.9.5-1.7.8-2.6 5-23.6 2.5-49.6-5.4-72.2-.3-.9-.6-1.7-.9-2.6-4.6-12.9-12.1-24.2-21.1-34.4-.7-.9-1.4-1.7-2.1-2.6-2-2.6-4.3-4.4-6.9-6.4l-2.3-2.3c-24.7-24.3-62.5-26.7-95.1-26.8h-11.9c-2.7.1-2.7.1-3.7 1.1M482.576 330.861h24.8c5.5 0 5.5 0 6.6 1.1.1 1.7.1 3.3.1 4.9 0 1.1.1 2.1.1 3.2 0 .6 0 .6-.1 3.6v178.9c0 37.8-.1 75.6-.1 113.4h-2v2h-34v-2h-2v-132.5c0-14.8 0-29.5-.1-44.3v-125.1c.3-4.3 3.1-3.2 6.7-3.2M827.188 385.625c5.5 4.5 8.3 8.9 9.3 16 .3 7.1 0 12.8-4.5 18.5-7.7 7.2-15.1 9.2-25.4 9.1-7.3-.4-12.7-2.5-18.1-7.5-5-5.8-6.9-12.6-6.8-20.1.7-6.6 4.3-11.4 9.3-15.6 11.6-8.2 24.3-8.3 36.2-.4M1183 427c.7 0 1.4.1 2.2.1 12.5.6 12.5.6 13.8 1.9 2.2.4 4.4.8 6.6 1.1 24.3 4.5 47.1 22.3 61.1 42 5.4 8.1 9.7 17.5 12.3 26.9.3.9.5 1.7.8 2.6 3.2 10.8 3.3 21.2 3.2 32.4-9.7.9-19.4 1.1-29.1 1.1h-30.7c-11.3-.1-22.6-.1-33.8-.1-12.2 0-24.4 0-36.6-.1h-40c-2.8.1-2.8.1-5.8 1.1.6 12.1 2 23.3 8 34.1 1 1.9 1 1.9 1 3.9h2c.6 1.1 1.2 2.1 1.8 3.2 7.7 13.4 22.6 23.9 37.4 28.5 14.2 3.6 32.4 3.6 45.8-2.7.9-.4 1.9-.9 2.8-1.3 8.7-4.4 19.6-10.5 24.6-19.1 1.4-2.2 2.7-4 4.5-6 .4-.5.9-1 1.4-1.6 1.7-1 1.7-1 4-.7 2.5.6 4.8 1.4 7.2 2.2.8.3 1.7.6 2.5.9.5.1.5.1 2.7.9.9.3 1.8.6 2.7 1 5.9 2.1 11.8 4.2 17.6 6.7-.7 3.7-2.3 6.3-4.3 9.4-.6 1-1.2 1.9-1.8 2.8-1.9 2.8-3.7 5.3-5.9 7.8h-2c-.1.3-.1.3-.7 1.7-6.2 10.8-20.5 18.8-31.3 24.3-1 .5-1.9 1-2.9 1.5-11.6 5.7-24.1 9.1-37.1 9.5-.4 0-.4 0-2.2.1-22.6.7-43.4-1.9-62.8-14.1-1.2-.7-2.5-1.3-3.7-2-3.6-2.2-6.9-4.7-10.2-7.3-1.4-1.2-2.9-2.2-4.4-3.3-.5-.5-1.1-.9-1.7-1.4v-2c-1-.3-2-.7-3-1-2.5-2.5-4.7-5.3-7-8-.7-.8-1.3-1.6-2-2.4-4.9-5.8-8.6-11.8-12-18.6-.4-.9-.9-1.7-1.3-2.6-12.2-25.3-13.1-56-3.9-82.3 3.8-10.6 9.6-19.5 16.3-28.5l1.5-2.1c3.1-4.1 6.3-7.3 10.4-10.5l2.5-2.5c21.1-21.1 50.4-28.8 79.5-27.5m-55.1 49.1c-5.6 5.8-11 13.4-13.9 20.9.9 2.2.9 2.2 2 4 15.7 0 31.5 0 47.2.1h71.7c2.1-.1 2.1-.1 4.1-1.1-2.9-12.6-10.5-22.3-21.2-29.4-26.4-15-65.8-13.8-89.9 5.5M1448 432c.7.3 1.5.5 2.2.8 13.9 5.5 25.6 17 33.8 29.2.7.3 1.3.7 2 1v-1.7c0-2.6 0-5.2-.1-7.7v-7.7c.1-1.9.1-1.9 1.1-2.9 2.7-.1 5.3-.1 7.9-.1h22.5c5.5 0 5.5 0 6.6 1.1.1 2.5.1 4.9.1 7.4v113c-.1 23.9-.1 47.7-.1 71.6h-2v2h-36c-.3-10.2-.7-20.5-1-31-.7 1-1.3 2-2 3h-2c-.3.6-.5 1.1-.8 1.7-1.2 2.4-2.6 4.4-4.1 6.5-.5.8-1 1.5-1.6 2.2-.5.5-1 1.1-1.5 1.6h-3v3c-1.3 1.3-1.3 1.3-3.1 2.6-.3.2-.3.2-2 1.4-.4.2-.4.2-2.2 1.4-.7.5-1.5 1-2.2 1.5-5.6 3.7-10.9 6.5-17.5 8.1-1.2.3-2.3.6-3.5.9-28 6.2-56.8 1.1-81.5-12.9-.3-.7-.7-1.3-1-2-1.7-.9-3.4-1.9-5.1-2.8-3.1-1.9-5.6-4.3-8.3-6.8-.5-.6-1.1-1.1-1.7-1.6-12.9-12.3-22-25.4-28.9-41.8-.3-.8-.7-1.5-1-2.3-1.7-4.2-2.5-8.2-3-12.7l-1-1c-5-30.3 1.2-59.6 18.4-84.9 2.7-3.5 5.6-6.8 8.6-10.1.8-.8 1.5-1.6 2.3-2.5 1.7-1.5 1.7-1.5 3.7-1.5.2-.6.5-1.2.7-1.8 4.9-8.5 16.9-13.7 25.3-18.2.6-.3 1.3-.7 1.9-1 4.8-2.5 9.6-4.2 14.8-5.6.8-.2 1.6-.4 2.4-.7 19.9-5.2 42.4-6 61.9 1.3m-69 40c-.8.5-1.7.9-2.5 1.4-2.9 1.9-5.1 4.1-7.5 6.6l-2.6 2.6c-15.6 16.1-21.1 34.3-20.8 56.6.6 19.3 8.8 37.1 22.8 50.5 8.3 7.2 17.1 12.7 27.6 16.3.5.2.5.2 3 1.1 5.7 1.6 11.6 1.2 17.4 1.2 1.2 0 2.3 0 3.6.1 6.9 0 12.6-.7 19-3.4l2.7-.9c15.3-5.6 28.6-18 36.3-32.1.5-.8.9-1.7 1.4-2.5 5.6-10.5 7.1-20.6 7-32.4v-6.3c0-20.3-7.8-35.7-21.7-50.2-24-23-57.7-25.2-85.7-8.6M657.723 426.84c10-.2 19.5 1.1 29.3 3.2 1.2.2 2.4.4 3.6.7 13.6 3.3 25.5 10.9 36.8 19.1.6.4 1.2.9 1.8 1.3 3.5 2.6 6.3 5.3 8.8 8.9v2c.5.2 1.1.4 1.7.6 3 1.8 4.8 4 7.1 6.7.8.9 1.6 1.9 2.4 2.8 1.8 2.9 1.8 2.9 1.5 5.7-.2.7-.5 1.4-.7 2.2h2v2c-3.7 1.4-7.5 2.7-11.2 4.1-1.9.7-3.7 1.4-5.6 2.1-1.2.5-2.4.9-3.6 1.4l-3.3 1.2c-3.5 1.2-6.9 2.2-10.3 3.2-3.3-3.2-6.3-6.5-9.3-10-3.9-4.3-7.9-7.8-12.7-11-.8-.6-1.5-1.1-2.3-1.6-14.5-9.4-32.7-11.4-49.6-8.2-17.4 4.4-33.5 14.3-43.8 29.4-10.7 19-14.3 40.2-10.1 61.7 1.4 4.8 3.5 9.2 5.8 13.7.2.4.2.4 1.4 2.9 8.9 16.9 22.9 27.7 40.6 34.1.5.2.5.2 3.2 1.1 17.4 3.9 36.5 1.8 51.8-7.6 1.7-1.1 3.3-2.3 5-3.5.7-.5 1.4-1 2.2-1.5 4.3-3.1 7.7-6.6 11.2-10.6 2-2.5 4.3-4.7 6.6-6.9 7 2 14 4.2 21 6.7.9.3 1.9.6 2.8.9 6.7 2.5 6.7 2.5 9.1 6.7.1 4.8-1.6 7-4.6 10.4l-1.5 1.8c-1.6 1.9-3.2 3.7-4.8 5.5-.5.5-.9 1-1.4 1.5-18.4 20.4-44.2 32.1-71.4 33.6-30.9 1.1-60-6.7-83-28-14.6-13.9-26.2-30.4-32-49.8-.2-.7-.4-1.4-.7-2.1-7.2-25.6-3.2-56.1 9.5-79.2l1.2-2.4c4.3-7.7 9.9-14.1 15.8-20.6.7-.9 1.5-1.7 2.2-2.6 5.9-6.2 12.6-10.8 19.8-15.4.8-.6 1.6-1.2 2.5-1.7 16.7-10.9 35.7-13.7 55.2-14.5M1007.395 449.871c15.4 13.1 25.5 31 27.4 51.2.4 5.4.3 10.8.3 16.3v117.5c-.1 2.1-.1 2.1-1.1 3.1-2.5.1-5 .1-7.5.1h-14.5c-4 0-8-.1-12-.1v-2h-3v-1.9l-.3-47.6c0-7.6-.1-15.3-.1-23 0-6.6-.1-13.3-.1-20-.1-3.5-.1-7.1-.1-10.6 0-4 0-7.9-.1-11.9v-3.5c-.1-14.5-2.9-27.8-13.3-38.7-10.3-9.1-22.1-13-35.8-12.4-8.2.8-17.5 5.6-23.2 11.6h-2c-.3.6-.5 1.2-.8 1.8-1.2 2.3-2.7 4.1-4.3 6.1-4.1 6.1-3.7 12.2-3.7 19.4v27.8c-.1 7.5-.1 15.1-.1 22.7v25.9c-.1 17.8-.1 35.6-.1 53.3-1 .4-2 .7-3 1v2h-34v-2h-2v-74.6c-.1-11.5-.1-23.1-.1-34.6v-76.5c0-5 0-5 1.1-7.3h3.2c3.9.1 7.9 0 11.8 0h5.1c10.8.1 18.5-1 27.9-6.3 24.6-13.7 63.8-2.9 84.4 13.2M274.576 442.861h24.8c5.5 0 5.5 0 6.6 1.1.1 1.5.2 2.9.2 4.4v9.2c0 2.4 0 4.8.1 7.1v11.3c.1 10.7.1 21.4.2 32.1 0 6.5.1 13.1.1 19.6 0 2.5 0 5 .1 7.5.1 44 .1 44 11.9 56.6 9.4 8.7 20.1 15.3 33.4 15.2 10.7-.8 16.7-3.1 25.2-9.5 1.1-.7 2.1-1.5 3.2-2.3 2.6-2.2 2.6-2.2 4.6-5.2h2c.1-.4.1-.4.8-2.4.9-2.7 2-5.2 3.2-7.7 4-9 4.3-18.5 4.3-28.2.1-1.2.1-2.4.1-3.6v-11.6c.1-2.7.1-5.4.1-8.1 0-6.3.1-12.7.1-19 .1-7.3.1-14.5.2-21.8.1-14.8.1-29.7.2-44.6h34v3h4c.1 16.5.2 32.9.2 49.3.1 7.6.1 15.2.1 22.8.1 6.7.1 13.3.1 20v10.5c.2 17.9.2 34.4-8.6 50.4-.4.7-.8 1.4-1.1 2.1-.9 1.7-1.8 3.3-2.7 4.9h-2c-.2.6-.5 1.2-.8 1.8-8.3 15.8-23.1 23.9-39.4 29.3-10 3-19.3 3.5-29.7 3.3-1.5-.1-3.1-.1-4.6-.1h-6.6c-4.8-.1-4.8-.1-5.9-1.3-2.2-.3-4.3-.7-6.5-1-6.3-1.1-11.7-3.1-17.4-6-.6-.4-1.3-.7-2.1-1.1-4.8-2.6-4.8-2.6-6-4.9-1-.3-2-.6-3-1v-2c-.6-.2-1.1-.5-1.7-.7-12.5-6.8-20.9-23.5-25.4-36.4-2.3-9.9-3.2-19.6-3.1-29.8v-61.5c0-7.2 0-14.4.1-21.5v-27c.3-4.3 3.1-3.2 6.7-3.2M796.398 442.861h24.1c5.3 0 5.3 0 7.5 1.1v192h-2v2h-34v-2h-2c0-25 0-50-.1-75v-111.8c0-6.1.4-6.3 6.5-6.3"/><path fill="#2f2005" d="M207 7c5.4 0 10.8 0 16.1-.1H239c5.8 0 5.8 0 8 1.1.9 2.4 1.7 4.7 2.4 7.1 2.9 8.8 5.9 17.5 9 26.2 3.6 9.9 7.1 19.9 10.3 29.9 1.3 3.9 2.6 7.6 4.2 11.4 2.5 6.2 4.6 12.7 6.8 19.1 5.1 15 10.4 30 15.8 45 2.9 7.8 5.6 15.6 8.2 23.5 2.3 6.8 4.7 13.6 7.1 20.3 1.1 3 2.1 6 3.2 9 .2.7.5 1.4.8 2.2 2.6 7.3 5.1 14.6 7.6 22 2 5.8 4.3 11.6 6.6 17.3 2.8-6.6 5.1-13.3 7.4-20.1 2.8-8.7 6-17.4 9.1-26 2.1-5.9 4.1-11.7 5.8-17.8.7-2.2 1.6-4.3 2.5-6.5 1.9-4.8 3.6-9.6 5.3-14.5.3-.9.6-1.8 1-2.7.6-1.8 1.3-3.7 1.9-5.5 1-2.9 2-5.7 3-8.5 1.6-4.8 3.3-9.6 5-14.4.7-2 1.3-3.9 2-5.9 4-11.3 7.9-22.6 11.6-33.9 1.6-5 3.4-9.8 5.4-14.6 1.7-4.4 3.2-8.9 4.7-13.4.4-1 .7-2 1-3 1.1-3.2 2.2-6.3 3.2-9.5 12-35.6 12-35.6 14.1-37.7 2.8-.1 5.6-.1 8.4-.1h10.7c1.8 0 3.6 0 5.4.1H450c1 3.5.9 5.1-.5 8.5-2 5.2-3.9 10.4-5.8 15.7-.6 1.7-1.2 3.5-1.8 5.2-.3.9-.7 1.8-1 2.7-4.9 13.8-9.9 27.7-15 41.5-3.6 9.7-7 19.5-9.9 29.4h-2c-.1.9-.2 1.8-.3 2.8-.7 5.4-2.7 10.3-4.6 15.4-.9 2.2-1.7 4.5-2.5 6.7-.2.6-.2.6-1.3 3.5-2.1 5.9-4.3 11.8-6.4 17.7l-1.2 3.6c-10.6 29.5-10.6 29.5-14.7 42.5-.9 2.5-1.9 4.9-2.9 7.4-2.6 6.6-4.9 13.3-7.2 20.1-2.8 8.2-2.8 8.2-4.5 12-1.5 3.6-2.8 7.3-4 11-3.8 11.7-8 23.2-12.1 34.8-.9 2.3-1.7 4.6-2.5 6.9-1.1 3.1-2.2 6.2-3.4 9.3-.3.9-.6 1.9-1 2.8-.1.4-.1.4-.9 2.6-.1.3-.1.3-.8 2.2-.7 1.7-.7 1.7-1.7 2.7-4.3.3-8.6.2-12.9.2h-10.5c-2.6-.2-2.6-.2-4.6-2.2-.7-1.6-1.3-3.3-1.8-5-.4-1-.8-2.1-1.1-3.1-.4-1.2-.8-2.3-1.2-3.5-.8-2.3-1.6-4.7-2.4-7.1-.4-1.2-.8-2.4-1.3-3.7-1.8-5.4-3.8-10.9-5.8-16.3-2.8-7.9-5.6-15.8-8.3-23.7-3.4-9.6-6.9-19.1-10.4-28.7-3-7.8-5.7-15.7-8.3-23.8-1.4-4.4-3-8.6-4.8-12.9-2.7-6.3-5-12.8-7.2-19.3-.8-2.6-1.7-5.1-2.6-7.7-.2-.6-.4-1.3-.7-2-2.5-7.3-5-14.5-7.6-21.8-.5-1.5-1-2.9-1.5-4.3-2.9-8.2-5.9-16.4-8.9-24.6-1.5-4-2.9-8-4.3-12-1.9-5.8-4-11.5-6.1-17.3-4.7-12.9-9.4-26-13.9-39-1.3-3.7-2.5-7.3-3.8-10.9-.4-.9-.7-1.8-1-2.8-.7-1.7-1.3-3.5-1.9-5.2-.3-.8-.6-1.6-.9-2.3-.2-.7-.4-1.4-.7-2.1C207 11 207 11 207 7M510 59c3 2.1 3 2.1 5 4v2l1.8.6c4 2.5 4.9 6.3 6 10.6.4 7.5-.9 14-5.8 19.8-6.5 6.6-11.7 9.3-21.2 9.4-7.7-.2-13.9-1.1-19.9-6.2-5.1-5.4-7.9-11.1-8.4-18.6.3-6.8 3.7-12.9 8.2-18 9.4-8.4 23.3-9.1 34.3-3.6M863 103c1.2 0 2.4.1 3.6.1 29 1.3 54.5 16.2 73.9 37.1 14.2 16.5 21.4 38.4 22.1 59.9.1 1 .1 1.9.1 2.9.1 2.3.2 4.7.3 7-3.7 1.2-7.2 1.1-11 1.1H850.4c-21.5-.1-42.9-.1-64.4-.1.3 2.6.6 5.1.9 7.7.1.7.2 1.5.3 2.2 2.3 19.1 11.1 35.5 25.8 48.1 13.7 10.3 27.3 14.3 44.2 14.4 1.2 0 2.3.1 3.4.1 17.1-.2 32.1-7.9 44.4-19.5 3-3.1 5.8-6.3 8.3-9.9 1.3-1.7 1.3-1.7 3.7-4.1 4.3.3 8.1 1.6 12.1 3 1.2.4 2.3.8 3.5 1.2 1.1.4 2.3.8 3.5 1.2s2.4.9 3.6 1.3c9.5 3.3 9.5 3.3 13.3 5.3-1.6 9.5-11.6 18.2-18 25-.3.4-.3.4-2.1 2.2-3.4 3.6-3.4 3.6-4.9 4.8h-2v2c-2 1.5-3.9 2.8-6 4.1-.6.4-1.3.8-1.9 1.2-26.4 16.4-55.4 21.9-86.1 15.7l-3-.6c-26.5-5.7-50.3-24.2-65.3-46.6-5.6-9.1-10-17.9-13.1-28.1-.3-.8-.5-1.6-.8-2.5-4.6-16.2-4.5-35.8-.8-52.2.2-1.1.5-2.2.7-3.3 7.1-27.9 26.8-52 51.2-66.8 8.5-4.9 8.5-4.9 13.1-4.9v-2c16.2-5.1 32-7.7 49-7m-59.9 54.6c-4.5 5.2-8.9 11.2-9.1 18.4 1 1 1 1 3 1.1h75.1c15.3-.1 30.6-.1 45.9-.1 1.3-3.9.4-4.9-1.4-8.6-7.6-14.5-19.2-23.5-34.6-28.4-3-.8-5.9-1.5-9-2-.6-.1-1.3-.2-2-.3-25.4-3.6-49.6 1.1-67.9 19.9M1255 109c1.1.4 2.1.8 3.2 1.2 8.4 3.5 16.5 7.4 23.8 12.8v2c.3.1.3.1 1.7.8 19.8 10.7 32.5 34.9 39.2 55.5.4 1.6.8 3.1 1.1 4.7.2.9.4 1.7.6 2.6 5.3 27.4.9 57-14.6 80.4-11.1 15.4-11.1 15.4-16 17-.1.3-.1.3-.8 1.7-1.8 3.5-4.7 5.7-7.6 8.2-.7.5-1.3 1-1.9 1.6-5.3 4.3-10.5 7.7-16.7 10.5-1.1.5-2.1 1-3.2 1.5-28.1 12.9-60 12.6-88.9 2.4-27-10.5-49-33.1-60.6-59.4-1.5-4-2.9-8.1-4.1-12.3-.2-.6-.4-1.3-.6-2-7.2-25.1-3.3-55 9.2-77.7 4.8-8.5 10.1-16.7 17.2-23.5.3-.3.3-.3 1.8-1.9 3.3-3.3 6.5-6.4 10.2-9.1h2v-2c28.8-21.1 71.3-28.7 105-15m-69 35c-.8.4-1.6.9-2.4 1.3-15.5 8.8-27.8 21.6-33.6 38.7-.4 1.1-.8 2.3-1.2 3.4-6.1 20.6-3.9 41.7 5.7 60.7 9.5 17.5 26.1 28.6 44.5 34.9 18.1 4.2 36.7 1.5 52.7-7.6 16.7-10.9 29.4-26.5 34.3-46.2 3.7-21.1.8-42.3-11.2-60.3-1.3-1.7-2.5-3.3-3.8-4.9-.7-.9-1.4-1.8-2.2-2.7-12.6-15-29.4-22.6-48.8-24.3-.8-.1-1.5-.1-2.3-.2-10.5-.5-22.5 2.1-31.7 7.2M480.51 118.886h7.2c2.6 0 5.2 0 7.9.1h18.4c.1 25.3.3 50.6.4 75.8.1 11.8.2 23.5.2 35.3.1 10.2.2 20.4.2 30.6 0 5.4.1 10.9.1 16.3 0 5.1.1 10.2.1 15.3v5.6c0 2.5.1 5.1.1 7.6v2.3c0 1.7-.1 3.5-.1 5.2-1.8 1.8-4.3 1.1-6.7 1.2-.8 0-1.6-.1-2.5-.1h-7.6c-2.7 0-5.4 0-8 .1-1.7-.1-3.4-.1-5.1-.1-.8 0-1.6.1-2.4.1-5.6-.1-5.6-.1-6.7-1.2-.1-2.5-.1-4.9-.1-7.4v-180.4c0-6.2 0-6.2 4.6-6.3M558 118.65c1.9 0 3.8 0 5.7-.1 2.8 0 5.5-.1 8.3-.1h2.6c2.2 0 4.2 0 6.4.6 1.9 2.2 1.9 2.2 3 5 .3.6.7 1.3 1 2.1.3.6.6 1.3.9 2 .2.4.2.4 1.1 2.4.1.4.1.4 1 2.5.2.3.2.3 1 2.3 1.1 2.5 2.2 5 3.2 7.5.2.5.2.5 1.2 2.8 2.6 6.1 5.2 12.2 7.8 18.4 2.2 5.2 4.5 10.5 6.9 15.7 2.7 5.7 5 11.5 7.3 17.4 1.2 2.9 2.5 5.8 3.8 8.7 3.2 7 6.2 14 9.2 21 .9 2.2 1.9 4.5 2.9 6.8.6 1.4 1.2 2.9 1.8 4.3l.9 2.1c2 4.7 2 4.7 2 7h2c.2-.8.5-1.6.7-2.3 1.8-5.2 4-10.1 6.2-15q6.75-15.3 13.2-30.6c2.1-5.1 4.3-10 6.6-15 4.7-10 9-20.1 13.4-30.3 1.3-3.1 2.6-6.1 4-9.2l2.4-5.7c8-18.5 8-18.5 9.5-19.9 3-.1 5.9-.2 8.8-.1h17c4.8 0 9.5 0 14.2.1.1 4.9-.5 7.7-2.8 12.1-.6 1.4-1.2 2.7-1.9 4-.3.8-.7 1.5-1.1 2.3-2.5 5.2-4.7 10.5-7.1 15.7-1 2.4-2.1 4.8-3.1 7.1-.5 1.2-1 2.3-1.6 3.5-1.9 4.5-4 8.9-6 13.4-6.8 15.2-13.6 30.6-20.2 46-3 7-6.1 14-9.4 20.9-2.6 5.7-5 11.4-7.5 17.2-2.2 5.2-4.5 10.4-6.9 15.5-2.5 5.3-4.8 10.5-7 15.9-7.3 18.3-7.3 18.3-10.4 21.4-1.8 0-3.6.1-5.3 0H625c-3.6-7-6.8-14-9.7-21.3-1.7-4.4-3.7-8.8-5.7-13.1-2.6-5.3-4.9-10.7-7.1-16.1-2.3-5.8-4.8-11.4-7.5-17-3.3-7-6.3-14.2-9.4-21.3-.3-.7-.6-1.3-.9-2-3.4-7.9-6.8-15.8-10.1-23.7s-6.9-15.8-10.6-23.5c-1.1-2.3-2.1-4.6-3.2-6.9-.2-.4-.2-.4-1.3-2.9q-1.8-3.75-3.3-7.8c-3.1-7.7-6.5-15.2-10-22.8-.5-1.2-1-2.3-1.5-3.5-.3-.5-.3-.5-1.4-3.1-1.3-3-2.3-6-3.3-9 2.9-3 13.8-1.4 18-1.4M1063 116c.6 1.1 1.1 2.2 1.7 3.3l2.4 4.5c.2.3.2.3 1.2 2.3q4.5 8.4 9.6 16.5c1.1 2.4 1.1 2.4.8 4.7-.2.6-.5 1.1-.7 1.7-.3.1-.3.1-2.1.4-15.1 3.2-29.4 10.5-38.8 23.1-8.7 13.9-11.2 28.3-11.3 44.4v3.2c-.1 3.5-.1 6.9-.1 10.4 0 2.4-.1 4.8-.1 7.2 0 6.3-.1 12.7-.1 19-.1 6.4-.1 12.9-.2 19.3l-.3 38c-5.3 0-10.5 0-15.8.1h-15.4c-2 0-3.9 0-5.8-.1-1.7-1.7-1.1-3.9-1.1-6.2V125.2c0-5.1 0-5.1 1.1-6.2 2.7-.1 5.3-.1 7.9-.1h22.5c5.5 0 5.5 0 6.6 1.1 1 7.5 1.1 14.6 0 22h3c.2-.7.4-1.3.6-2 1.9-4.1 4.4-7.7 7.4-11h2c.3-1 .7-2 1-3 2.4-1.7 4.8-3.2 7.3-4.6.7-.4 1.4-.8 2.1-1.3 5-2.9 8.7-4.3 14.6-4.1"/></svg>